# xmcd
#
# Track frame offsets:
#	225
#	21880
#	44095
#	68608
#	88987
#	109743
#	137467
#	163523
#	189615
#	210908
#
# Disc length: 3020 seconds
#
# Revision: 0
# Processed by: cddbd v1.5.2PL0 Copyright (c) Steve Scherf et al.
# Submitted via: EasyCDDAExtractor 10.0.3.1
#
DISCID=860bc90a
DTITLE=Jassen Wilber - Nanoswarm
DYEAR=1900
DGENRE=
TTITLE0=Dark Matter
TTITLE1=Mellow
TTITLE2=Cold Shoulder Sunday
TTITLE3=Predatory Behavior
TTITLE4=Got Great Grace
TTITLE5=Phage
TTITLE6=The Point Of Pointless
TTITLE7=Nanoswarm
TTITLE8=Forbidden Planet
TTITLE9=Kill The Rabbit
EXTD=
EXTT0=
EXTT1=
EXTT2=
EXTT3=
EXTT4=
EXTT5=
EXTT6=
EXTT7=
EXTT8=
EXTT9=
PLAYORDER=
